<svg xmlns="http://www.w3.org/2000/svg" width="1414.215" height="1414.215" viewBox="0 0 1414.215 1414.215">
  <g id="그룹_431" data-name="그룹 431" transform="translate(-1792.892 -792.893)">
    <g id="그룹_430" data-name="그룹 430">
      <rect id="사각형_316" data-name="사각형 316" width="1200" height="1200" transform="translate(1900 900)" fill="none"/>
      <circle id="타원_17" data-name="타원 17" cx="500" cy="500" r="500" transform="translate(2000 1000)" fill="#6dc6ea"/>
      <g id="그룹_427" data-name="그룹 427" transform="translate(868.158 -916.008) rotate(25)">
        <path id="빼기_28" data-name="빼기 28" d="M6475-3864a508.267,508.267,0,0,1-51.121-2.58,501.043,501.043,0,0,1-49.646-7.578c-16.106-3.3-32.228-7.441-47.917-12.32-15.517-4.826-30.974-10.483-45.94-16.814-14.848-6.281-29.553-13.365-43.706-21.054-14.063-7.639-27.934-16.065-41.224-25.045-13.22-8.931-26.17-18.615-38.492-28.783-12.287-10.14-24.233-21-35.508-32.27s-22.122-23.211-32.271-35.509c-10.164-12.313-19.848-25.263-28.784-38.49-8.966-13.271-17.393-27.142-25.046-41.226-7.7-14.178-14.784-28.883-21.053-43.707-6.334-14.974-11.991-30.429-16.813-45.938-4.877-15.681-9.023-31.8-12.322-47.917a501.125,501.125,0,0,1-7.576-49.646c-1.665-16.389-2.533-33.111-2.58-49.7a168.888,168.888,0,0,0,3.4,32.837,166.648,166.648,0,0,0,9.76,31.441,167.481,167.481,0,0,0,15.443,28.453,168.64,168.64,0,0,0,20.453,24.789,168.61,168.61,0,0,0,24.789,20.453,167.489,167.489,0,0,0,28.452,15.444,166.644,166.644,0,0,0,31.442,9.76,168.751,168.751,0,0,0,33.757,3.4,168.771,168.771,0,0,0,33.758-3.4,166.661,166.661,0,0,0,31.441-9.76,167.512,167.512,0,0,0,28.453-15.444,168.614,168.614,0,0,0,24.79-20.453,168.627,168.627,0,0,0,20.453-24.789,167.444,167.444,0,0,0,15.443-28.453,166.6,166.6,0,0,0,9.76-31.441,168.763,168.763,0,0,0,3.4-33.757c0-.164,0-.335,0-.5a334.989,334.989,0,0,1,6.841-66.922,330.892,330.892,0,0,1,19.428-62.326,332.629,332.629,0,0,1,30.682-56.4,334.949,334.949,0,0,1,40.6-49.132,334.872,334.872,0,0,1,49.189-40.536,332.518,332.518,0,0,1,56.443-30.6,330.838,330.838,0,0,1,62.364-19.341A334.929,334.929,0,0,1,6642.5-4696a334.938,334.938,0,0,1,66.952,6.743,330.86,330.86,0,0,1,62.364,19.341,332.555,332.555,0,0,1,56.443,30.6,334.872,334.872,0,0,1,49.189,40.536,334.882,334.882,0,0,1,40.6,49.132,332.629,332.629,0,0,1,30.682,56.4,330.857,330.857,0,0,1,19.428,62.326A334.906,334.906,0,0,1,6975-4364v.5c0,.733,0,1.524-.009,2.339-.091,16.135-.957,32.38-2.573,48.284a500.962,500.962,0,0,1-7.576,49.646c-3.3,16.106-7.441,32.228-12.32,47.917-4.823,15.506-10.48,30.962-16.813,45.938-6.275,14.834-13.359,29.539-21.055,43.707-7.642,14.068-16.069,27.938-25.046,41.226-8.925,13.212-18.609,26.162-28.783,38.49-10.125,12.272-20.983,24.219-32.271,35.509-11.263,11.263-23.209,22.12-35.507,32.27-12.332,10.175-25.282,19.859-38.492,28.783-13.289,8.977-27.159,17.4-41.226,25.045-14.163,7.694-28.868,14.778-43.707,21.054-14.955,6.327-30.411,11.984-45.937,16.814-15.691,4.88-31.813,9.025-47.918,12.32a501.032,501.032,0,0,1-49.645,7.578A508.352,508.352,0,0,1,6475-3864Z" transform="translate(-3975.001 5864)" fill="rgba(0,161,224,0.4)"/>
        <circle id="타원_30" data-name="타원 30" cx="500" cy="500" r="500" transform="translate(2000 1000)" fill="none"/>
      </g>
      <g id="그룹_428" data-name="그룹 428" transform="translate(1792.894 -1328.427) rotate(45)">
        <path id="빼기_24" data-name="빼기 24" d="M6475-3946a508.228,508.228,0,0,1-51.121-2.582,501.006,501.006,0,0,1-49.646-7.578c-16.093-3.292-32.214-7.437-47.917-12.32-15.517-4.827-30.974-10.483-45.939-16.814-14.833-6.273-29.539-13.357-43.706-21.054-14.062-7.638-27.931-16.064-41.224-25.045-13.22-8.932-26.171-18.616-38.492-28.783-12.275-10.128-24.222-20.986-35.509-32.27-11.264-11.264-22.121-23.21-32.271-35.507-10.167-12.32-19.851-25.271-28.783-38.492-8.966-13.271-17.393-27.141-25.046-41.226-7.7-14.178-14.784-28.883-21.053-43.706-6.335-14.978-11.992-30.433-16.813-45.938-4.876-15.676-9.021-31.8-12.322-47.917a501.069,501.069,0,0,1-7.576-49.646,508.035,508.035,0,0,1-2.582-51.014,251.974,251.974,0,0,0,5.081,50.276,248.744,248.744,0,0,0,14.567,46.927,250.041,250.041,0,0,0,23.05,42.466,251.769,251.769,0,0,0,30.527,37,251.777,251.777,0,0,0,37,30.527,250,250,0,0,0,42.466,23.05,248.709,248.709,0,0,0,46.927,14.567A251.863,251.863,0,0,0,6225-4196a251.864,251.864,0,0,0,50.384-5.079,248.724,248.724,0,0,0,46.928-14.567,249.992,249.992,0,0,0,42.466-23.05,251.777,251.777,0,0,0,37-30.527,251.76,251.76,0,0,0,30.527-37,250.04,250.04,0,0,0,23.05-42.466,248.744,248.744,0,0,0,14.567-46.927A251.876,251.876,0,0,0,6475-4446a251.868,251.868,0,0,1,5.079-50.385,248.742,248.742,0,0,1,14.567-46.928,250.067,250.067,0,0,1,23.05-42.466,251.821,251.821,0,0,1,30.527-37,251.819,251.819,0,0,1,37-30.527,250.039,250.039,0,0,1,42.466-23.05,248.724,248.724,0,0,1,46.928-14.567A251.868,251.868,0,0,1,6725-4696a251.868,251.868,0,0,1,50.384,5.079,248.742,248.742,0,0,1,46.927,14.567,250.029,250.029,0,0,1,42.466,23.05,251.819,251.819,0,0,1,37,30.527,251.821,251.821,0,0,1,30.527,37,250,250,0,0,1,23.05,42.466,248.722,248.722,0,0,1,14.567,46.928A251.868,251.868,0,0,1,6975-4446a507.62,507.62,0,0,1-2.582,51.123,500.962,500.962,0,0,1-7.576,49.646c-3.3,16.1-7.44,32.225-12.32,47.917-4.822,15.5-10.479,30.957-16.813,45.938-6.276,14.836-13.36,29.541-21.055,43.706-7.646,14.075-16.073,27.946-25.046,41.226-8.921,13.208-18.6,26.158-28.783,38.492-10.129,12.274-20.986,24.22-32.271,35.507-11.262,11.262-23.208,22.119-35.507,32.27-12.321,10.168-25.271,19.852-38.492,28.783-13.286,8.976-27.157,17.4-41.226,25.045-14.177,7.7-28.882,14.786-43.707,21.054-14.956,6.327-30.412,11.984-45.937,16.814-15.69,4.88-31.812,9.025-47.918,12.32a500.948,500.948,0,0,1-49.645,7.578A508.306,508.306,0,0,1,6475-3946Z" transform="translate(-3975.001 5946)" fill="rgba(0,161,224,0.6)"/>
        <circle id="타원_31" data-name="타원 31" cx="500" cy="500" r="500" transform="translate(2000 1000)" fill="none"/>
      </g>
      <g id="그룹_429" data-name="그룹 429" transform="translate(1084.937 -1049.038) rotate(30)">
        <path id="빼기_26" data-name="빼기 26" d="M6475-3821a508.34,508.34,0,0,1-51.121-2.58,501.714,501.714,0,0,1-49.646-7.578c-16.107-3.3-32.229-7.441-47.917-12.32-15.512-4.825-30.968-10.482-45.939-16.813-14.833-6.275-29.539-13.359-43.706-21.055-14.065-7.64-27.936-16.067-41.224-25.046-13.214-8.925-26.165-18.609-38.492-28.781-12.293-10.146-24.24-21-35.509-32.272s-22.128-23.218-32.271-35.507c-10.166-12.316-19.85-25.267-28.783-38.491-8.972-13.28-17.4-27.15-25.046-41.224-7.7-14.179-14.785-28.885-21.053-43.708-6.332-14.967-11.988-30.422-16.813-45.937-4.876-15.676-9.021-31.8-12.322-47.917a501.064,501.064,0,0,1-7.576-49.645,508.016,508.016,0,0,1-2.582-50.956,381.522,381.522,0,0,0,1.938,38.175,375.81,375.81,0,0,0,5.683,37.234,373.079,373.079,0,0,0,21.851,70.392,375,375,0,0,0,34.575,63.7,377.7,377.7,0,0,0,45.791,55.5,377.673,377.673,0,0,0,55.5,45.791,375.054,375.054,0,0,0,63.7,34.575,373.088,373.088,0,0,0,70.392,21.85,375.885,375.885,0,0,0,37.234,5.683A381.02,381.02,0,0,0,6350-3946a381.01,381.01,0,0,0,38.341-1.936,375.885,375.885,0,0,0,37.234-5.683,373.105,373.105,0,0,0,70.391-21.85,375.028,375.028,0,0,0,63.7-34.575,377.67,377.67,0,0,0,55.5-45.791,377.651,377.651,0,0,0,45.791-55.5,374.992,374.992,0,0,0,34.575-63.7,373.141,373.141,0,0,0,21.851-70.392,375.917,375.917,0,0,0,5.683-37.234A381.035,381.035,0,0,0,6725-4321a125.932,125.932,0,0,1,2.54-25.192,124.38,124.38,0,0,1,7.284-23.464,125.032,125.032,0,0,1,11.525-21.233,125.931,125.931,0,0,1,15.264-18.5,125.931,125.931,0,0,1,18.5-15.264,125.026,125.026,0,0,1,21.233-11.525,124.4,124.4,0,0,1,23.463-7.284A125.931,125.931,0,0,1,6850-4446a125.932,125.932,0,0,1,25.192,2.54,124.389,124.389,0,0,1,23.464,7.284,125.032,125.032,0,0,1,21.233,11.525,125.906,125.906,0,0,1,18.5,15.264,125.9,125.9,0,0,1,15.264,18.5,125.032,125.032,0,0,1,11.525,21.233,124.4,124.4,0,0,1,7.284,23.464A125.932,125.932,0,0,1,6975-4321a507.62,507.62,0,0,1-2.582,51.123,500.92,500.92,0,0,1-7.576,49.645c-3.293,16.1-7.438,32.218-12.32,47.917-4.825,15.51-10.482,30.965-16.813,45.937-6.274,14.833-13.358,29.539-21.055,43.708-7.642,14.067-16.068,27.937-25.046,41.224-8.923,13.21-18.607,26.161-28.783,38.491-10.129,12.276-20.986,24.222-32.271,35.507-11.269,11.268-23.215,22.126-35.507,32.272-12.328,10.172-25.278,19.855-38.492,28.781-13.271,8.968-27.142,17.394-41.226,25.046-14.178,7.7-28.883,14.785-43.707,21.055-14.975,6.333-30.431,11.99-45.937,16.813-15.692,4.879-31.814,9.024-47.918,12.32a501.571,501.571,0,0,1-49.645,7.578A508.417,508.417,0,0,1,6475-3821Z" transform="translate(-3975.001 5821)" fill="rgba(255,255,255,0.7)"/>
        <circle id="타원_29" data-name="타원 29" cx="500" cy="500" r="500" transform="translate(2000 1000)" fill="none"/>
      </g>
      <path id="패스_193" data-name="패스 193" d="M102.671-9.833C162.414-14.305,205.41-40.6,205.41-40.6S203.974,45.28,178.3,91.427s-45.331,43.5-75.6,52.565C61.622,156.3-.021,205.522-.021,205.522s-.1-116.888,0-129.155C.241,45.392,42.928-5.36,102.671-9.833Z" transform="translate(2155.594 1099.386) rotate(30)" fill="#00a1e0"/>
      <path id="패스_194" data-name="패스 194" d="M71.043-12.371c-42.993-4.281-73.3-26.961-73.3-26.961S3.1,49.949,23.1,84.59s30.537,41.94,52.321,50.622c29.557,11.779,72.346,59.777,72.346,59.777s.075-111.886,0-123.627C147.578,41.712,114.035-8.09,71.043-12.371Z" transform="translate(2022.29 1035.192) rotate(30)" fill="#00a1e0"/>
    </g>
    <text id="PADONG" transform="translate(2502 2142)" fill="#00a1e0" font-size="130" font-family="NotoSans-Bold, Noto Sans" font-weight="700"><tspan x="-282.165" y="0">PADONG</tspan></text>
  </g>
</svg>
